<?xml version="1.0" encoding="UTF-8" standalone="no"?>
<svg
   xmlns:dc="http://purl.org/dc/elements/1.1/"
   xmlns:cc="http://creativecommons.org/ns#"
   xmlns:rdf="http://www.w3.org/1999/02/22-rdf-syntax-ns#"
   xmlns:svg="http://www.w3.org/2000/svg"
   xmlns="http://www.w3.org/2000/svg"
   xmlns:sodipodi="http://sodipodi.sourceforge.net/DTD/sodipodi-0.dtd"
   xmlns:inkscape="http://www.inkscape.org/namespaces/inkscape"
   inkscape:version="1.0 (4035a4f, 2020-05-01)"
   sodipodi:docname="max-out-stats.svg"
   viewBox="0 0 347.24173 127.2543"
   height="127.2543"
   width="347.24173"
   xml:space="preserve"
   id="svg1335"
   version="1.1"><metadata
     id="metadata1341"><rdf:RDF><cc:Work
         rdf:about=""><dc:format>image/svg+xml</dc:format><dc:type
           rdf:resource="http://purl.org/dc/dcmitype/StillImage" /><dc:title></dc:title></cc:Work></rdf:RDF></metadata><defs
     id="defs1339" /><sodipodi:namedview
     inkscape:current-layer="g1343"
     inkscape:window-maximized="1"
     inkscape:window-y="27"
     inkscape:window-x="67"
     inkscape:cy="47.960725"
     inkscape:cx="123.92532"
     inkscape:zoom="1.2195172"
     showgrid="false"
     id="namedview1337"
     inkscape:window-height="713"
     inkscape:window-width="1293"
     inkscape:pageshadow="2"
     inkscape:pageopacity="0"
     guidetolerance="10"
     gridtolerance="10"
     objecttolerance="10"
     borderopacity="1"
     bordercolor="#666666"
     pagecolor="#ffffff" /><g
     transform="matrix(1.3333333,0,0,1.3333333,-5.5649133,0)"
     inkscape:label="max-out-stats"
     inkscape:groupmode="layer"
     id="g1343"><g
       id="g2187"><g
         id="g1952"
         transform="translate(4.173685)"><g
           id="g1347"><path
             d="M 60.324,12.129 29.156,4.738 30.594,6.52 27.184,4.164 31.289,3.586 29.207,4.535 60.371,11.93 Z"
             style="fill:#000000;fill-opacity:1;fill-rule:nonzero;stroke:#000000;stroke-width:0.75;stroke-linecap:round;stroke-linejoin:round;stroke-miterlimit:10;stroke-dasharray:none;stroke-opacity:1"
             id="path1349" /></g><g
           id="g1351"><path
             d="M 62.609,51.816 27.305,7.531 27.332,9.82 26.105,5.859 29.691,7.941 27.465,7.402 62.773,51.691 Z"
             style="fill:#000000;fill-opacity:1;fill-rule:nonzero;stroke:#000000;stroke-width:0.75;stroke-linecap:round;stroke-linejoin:round;stroke-miterlimit:10;stroke-dasharray:none;stroke-opacity:1"
             id="path1353" /></g><g
           id="g1355"><path
             d="m 26.555,65.73 -2.27,-57.14 -1.332,1.859 1.352,-3.918 1.66,3.797 -1.477,-1.75 2.27,57.145 z"
             style="fill:#000000;fill-opacity:1;fill-rule:nonzero;stroke:#000000;stroke-width:0.75;stroke-linecap:round;stroke-linejoin:round;stroke-miterlimit:10;stroke-dasharray:none;stroke-opacity:1"
             id="path1357" /></g><g
           id="g1359"><path
             d="M 4.949,35.48 21.461,7.809 19.328,8.641 22.605,6.098 21.918,10.188 21.641,7.914 5.125,35.586 Z"
             style="fill:#000000;fill-opacity:1;fill-rule:nonzero;stroke:#000000;stroke-width:0.75;stroke-linecap:round;stroke-linejoin:round;stroke-miterlimit:10;stroke-dasharray:none;stroke-opacity:1"
             id="path1361" /></g><g
           id="g1363"><path
             d="m 27.207,4.062 31.164,7.391 -1.433,-1.785 3.41,2.359 -4.106,0.578 2.082,-0.953 -31.164,-7.39 z"
             style="fill:#000000;fill-opacity:1;fill-rule:nonzero;stroke:#000000;stroke-width:0.75;stroke-linecap:round;stroke-linejoin:round;stroke-miterlimit:10;stroke-dasharray:none;stroke-opacity:1"
             id="path1365" /></g><g
           id="g1367"><path
             d="m 64.418,51.086 -1.016,-33.207 -1.351,1.848 1.39,-3.907 1.625,3.813 -1.461,-1.762 1.016,33.207 z"
             style="fill:#000000;fill-opacity:1;fill-rule:nonzero;stroke:#000000;stroke-width:0.75;stroke-linecap:round;stroke-linejoin:round;stroke-miterlimit:10;stroke-dasharray:none;stroke-opacity:1"
             id="path1369" /></g><g
           id="g1371"><path
             d="M 28.375,66.168 60.453,16.984 58.289,17.73 61.664,15.32 60.816,19.379 60.625,17.098 28.551,66.281 Z"
             style="fill:#000000;fill-opacity:1;fill-rule:nonzero;stroke:#000000;stroke-width:0.75;stroke-linecap:round;stroke-linejoin:round;stroke-miterlimit:10;stroke-dasharray:none;stroke-opacity:1"
             id="path1373" /></g><g
           id="g1375"><path
             d="m 6.254,36.879 52.324,-22.227 -2.211,-0.586 4.145,-0.121 -2.965,2.899 1.113,-2 -52.324,22.222 z"
             style="fill:#000000;fill-opacity:1;fill-rule:nonzero;stroke:#000000;stroke-width:0.75;stroke-linecap:round;stroke-linejoin:round;stroke-miterlimit:10;stroke-dasharray:none;stroke-opacity:1"
             id="path1377" /></g><g
           id="g1379"><path
             d="m 26.184,5.797 35.308,44.285 -0.027,-2.289 1.226,3.961 -3.586,-2.078 2.227,0.535 L 26.023,5.926 Z"
             style="fill:#000000;fill-opacity:1;fill-rule:nonzero;stroke:#000000;stroke-width:0.75;stroke-linecap:round;stroke-linejoin:round;stroke-miterlimit:10;stroke-dasharray:none;stroke-opacity:1"
             id="path1381" /></g><g
           id="g1383"><path
             d="m 63.543,15.816 1.016,33.211 1.351,-1.851 -1.39,3.906 -1.625,-3.812 1.457,1.761 -1.012,-33.207 z"
             style="fill:#000000;fill-opacity:1;fill-rule:nonzero;stroke:#000000;stroke-width:0.75;stroke-linecap:round;stroke-linejoin:round;stroke-miterlimit:10;stroke-dasharray:none;stroke-opacity:1"
             id="path1385" /></g><g
           id="g1387"><path
             d="m 29.617,67.598 30.168,-11.676 -2.191,-0.66 4.144,0.015 -3.058,2.801 1.179,-1.965 -30.168,11.676 z"
             style="fill:#000000;fill-opacity:1;fill-rule:nonzero;stroke:#000000;stroke-width:0.75;stroke-linecap:round;stroke-linejoin:round;stroke-miterlimit:10;stroke-dasharray:none;stroke-opacity:1"
             id="path1389" /></g><g
           id="g1391"><path
             d="m 6.465,38.859 53.203,13.907 -1.391,-1.817 3.352,2.434 -4.117,0.484 2.105,-0.902 L 6.414,39.059 Z"
             style="fill:#000000;fill-opacity:1;fill-rule:nonzero;stroke:#000000;stroke-width:0.75;stroke-linecap:round;stroke-linejoin:round;stroke-miterlimit:10;stroke-dasharray:none;stroke-opacity:1"
             id="path1393" /></g><g
           id="g1395"><path
             d="m 24.406,6.527 2.274,57.141 1.332,-1.859 -1.356,3.918 -1.66,-3.797 1.477,1.746 -2.27,-57.141 z"
             style="fill:#000000;fill-opacity:1;fill-rule:nonzero;stroke:#000000;stroke-width:0.75;stroke-linecap:round;stroke-linejoin:round;stroke-miterlimit:10;stroke-dasharray:none;stroke-opacity:1"
             id="path1397" /></g><g
           id="g1399"><path
             d="m 61.75,15.379 -32.078,49.18 2.164,-0.747 -3.375,2.415 0.848,-4.059 0.191,2.281 32.078,-49.183 z"
             style="fill:#000000;fill-opacity:1;fill-rule:nonzero;stroke:#000000;stroke-width:0.75;stroke-linecap:round;stroke-linejoin:round;stroke-miterlimit:10;stroke-dasharray:none;stroke-opacity:1"
             id="path1401" /></g><g
           id="g1403"><path
             d="m 61.777,55.371 -30.172,11.676 2.196,0.66 -4.149,-0.012 3.059,-2.8 -1.18,1.96 30.172,-11.675 z"
             style="fill:#000000;fill-opacity:1;fill-rule:nonzero;stroke:#000000;stroke-width:0.75;stroke-linecap:round;stroke-linejoin:round;stroke-miterlimit:10;stroke-dasharray:none;stroke-opacity:1"
             id="path1405" /></g><g
           id="g1407"><path
             d="m 5.406,40.566 18.344,24.09 0.023,-2.289 1.137,3.988 -3.539,-2.16 2.215,0.586 -18.344,-24.09 z"
             style="fill:#000000;fill-opacity:1;fill-rule:nonzero;stroke:#000000;stroke-width:0.75;stroke-linecap:round;stroke-linejoin:round;stroke-miterlimit:10;stroke-dasharray:none;stroke-opacity:1"
             id="path1409" /></g><g
           id="g1411"><path
             d="M 22.691,6.152 6.18,33.82 8.312,32.988 5.035,35.531 5.723,31.441 6,33.715 22.516,6.047 Z"
             style="fill:#000000;fill-opacity:1;fill-rule:nonzero;stroke:#000000;stroke-width:0.75;stroke-linecap:round;stroke-linejoin:round;stroke-miterlimit:10;stroke-dasharray:none;stroke-opacity:1"
             id="path1413" /></g><g
           id="g1415"><path
             d="m 60.551,14.039 -52.324,22.227 2.211,0.586 -4.145,0.121 2.965,-2.899 -1.113,2 52.324,-22.222 z"
             style="fill:#000000;fill-opacity:1;fill-rule:nonzero;stroke:#000000;stroke-width:0.75;stroke-linecap:round;stroke-linejoin:round;stroke-miterlimit:10;stroke-dasharray:none;stroke-opacity:1"
             id="path1417" /></g><g
           id="g1419"><path
             d="M 61.605,53.484 8.402,39.578 l 1.391,1.817 -3.352,-2.438 4.118,-0.48 -2.106,0.902 53.203,13.906 z"
             style="fill:#000000;fill-opacity:1;fill-rule:nonzero;stroke:#000000;stroke-width:0.75;stroke-linecap:round;stroke-linejoin:round;stroke-miterlimit:10;stroke-dasharray:none;stroke-opacity:1"
             id="path1421" /></g><g
           id="g1423"><path
             d="m 24.828,66.418 -18.34,-24.09 -0.023,2.289 -1.141,-3.988 3.539,2.16 -2.211,-0.586 18.34,24.09 z"
             style="fill:#000000;fill-opacity:1;fill-rule:nonzero;stroke:#000000;stroke-width:0.75;stroke-linecap:round;stroke-linejoin:round;stroke-miterlimit:10;stroke-dasharray:none;stroke-opacity:1"
             id="path1425" /></g><g
           id="g1427"><path
             d="M 27.242,3.066 27.168,2.684 27.051,2.316 26.883,1.965 26.676,1.641 26.43,1.34 26.148,1.074 25.836,0.848 25.496,0.664 25.137,0.52 24.762,0.422 24.375,0.375 H 23.988 L 23.605,0.422 23.23,0.52 22.871,0.664 22.531,0.848 22.219,1.074 21.938,1.34 21.691,1.641 21.48,1.965 l -0.164,0.351 -0.117,0.368 -0.074,0.382 -0.023,0.383 0.023,0.387 0.074,0.383 0.117,0.367 0.164,0.352 0.211,0.324 0.247,0.3 0.281,0.262 0.312,0.231 0.34,0.183 0.359,0.145 0.375,0.097 0.383,0.047 h 0.387 l 0.387,-0.047 0.375,-0.097 0.359,-0.145 0.34,-0.183 0.312,-0.231 0.282,-0.262 0.246,-0.3 0.207,-0.324 0.168,-0.352 0.117,-0.367 0.074,-0.383 0.024,-0.387 z"
             style="fill:#a8a8a8;fill-opacity:1;fill-rule:nonzero;stroke:#000000;stroke-width:0.75;stroke-linecap:round;stroke-linejoin:round;stroke-miterlimit:10;stroke-dasharray:none;stroke-opacity:1"
             id="path1429" /></g><g
           id="g1431"><path
             d="M 66.406,12.352 66.332,11.973 66.215,11.605 66.047,11.254 65.84,10.926 65.594,10.629 65.312,10.363 65,10.137 64.66,9.949 64.301,9.809 63.926,9.711 63.539,9.664 h -0.387 l -0.382,0.047 -0.375,0.098 -0.36,0.14 -0.34,0.188 -0.312,0.226 -0.281,0.266 -0.25,0.297 -0.207,0.328 -0.165,0.351 -0.117,0.368 -0.074,0.379 -0.023,0.386 0.023,0.387 0.074,0.379 0.117,0.371 0.165,0.348 0.207,0.328 0.25,0.297 0.281,0.265 0.312,0.227 0.34,0.187 0.36,0.145 0.375,0.094 0.382,0.05 h 0.387 l 0.387,-0.05 0.375,-0.094 0.359,-0.145 0.34,-0.187 0.312,-0.227 0.282,-0.265 0.246,-0.297 0.207,-0.328 0.168,-0.348 0.117,-0.371 0.074,-0.379 0.024,-0.387 z"
             style="fill:#a8a8a8;fill-opacity:1;fill-rule:nonzero;stroke:#000000;stroke-width:0.75;stroke-linecap:round;stroke-linejoin:round;stroke-miterlimit:10;stroke-dasharray:none;stroke-opacity:1"
             id="path1433" /></g><g
           id="g1435"><path
             d="M 67.672,53.777 67.598,53.398 67.48,53.027 67.312,52.68 67.105,52.352 66.859,52.055 66.578,51.789 66.266,51.562 65.926,51.375 65.566,51.23 65.191,51.137 64.805,51.086 h -0.387 l -0.383,0.051 -0.375,0.093 -0.359,0.145 -0.34,0.187 -0.313,0.227 -0.281,0.266 -0.246,0.297 -0.211,0.328 -0.164,0.347 -0.117,0.371 -0.074,0.379 -0.024,0.387 0.024,0.387 0.074,0.379 0.117,0.367 0.164,0.351 0.211,0.329 0.246,0.296 0.281,0.266 0.313,0.227 0.34,0.187 0.359,0.141 0.375,0.097 0.383,0.047 h 0.387 l 0.386,-0.047 0.375,-0.097 0.36,-0.141 0.34,-0.187 0.312,-0.227 0.281,-0.266 0.246,-0.296 0.207,-0.329 0.168,-0.351 0.118,-0.367 0.074,-0.379 0.023,-0.387 z"
             style="fill:#a8a8a8;fill-opacity:1;fill-rule:nonzero;stroke:#000000;stroke-width:0.75;stroke-linecap:round;stroke-linejoin:round;stroke-miterlimit:10;stroke-dasharray:none;stroke-opacity:1"
             id="path1437" /></g><g
           id="g1439"><path
             d="M 29.836,68.422 29.766,68.039 29.645,67.672 29.48,67.32 29.273,66.996 29.027,66.695 28.742,66.43 28.43,66.203 28.09,66.02 27.73,65.875 27.355,65.777 26.973,65.73 h -0.387 l -0.383,0.047 -0.375,0.098 -0.363,0.145 -0.336,0.183 -0.317,0.227 -0.281,0.265 -0.246,0.301 -0.207,0.324 -0.164,0.352 -0.121,0.367 -0.07,0.383 -0.028,0.383 0.028,0.386 0.07,0.383 0.121,0.367 0.164,0.352 0.207,0.324 0.246,0.301 0.281,0.262 0.317,0.23 0.336,0.184 0.363,0.144 0.375,0.098 0.383,0.047 h 0.387 l 0.382,-0.047 0.375,-0.098 0.36,-0.144 0.34,-0.184 0.312,-0.23 0.285,-0.262 0.246,-0.301 0.207,-0.324 0.165,-0.352 0.121,-0.367 0.07,-0.383 0.023,-0.386 z"
             style="fill:#000000;fill-opacity:1;fill-rule:nonzero;stroke:#000000;stroke-width:0.75;stroke-linecap:round;stroke-linejoin:round;stroke-miterlimit:10;stroke-dasharray:none;stroke-opacity:1"
             id="path1441" /></g><g
           id="g1443"><path
             d="M 6.516,37.793 6.441,37.41 6.324,37.043 6.16,36.691 5.949,36.367 5.703,36.066 5.422,35.805 5.109,35.574 4.77,35.391 4.41,35.246 4.035,35.152 3.652,35.102 H 3.266 l -0.387,0.05 -0.375,0.094 -0.359,0.145 -0.34,0.183 -0.313,0.231 -0.281,0.261 -0.246,0.301 -0.207,0.324 -0.168,0.352 -0.117,0.367 -0.075,0.383 -0.023,0.387 0.023,0.382 0.075,0.383 0.117,0.367 0.168,0.352 0.207,0.324 0.246,0.301 0.281,0.266 0.313,0.226 0.34,0.188 0.359,0.14 0.375,0.098 0.387,0.047 H 3.652 L 4.035,41.207 4.41,41.109 4.77,40.969 5.109,40.781 5.422,40.555 5.703,40.289 5.949,39.988 6.16,39.664 6.324,39.312 6.441,38.945 6.516,38.562 6.539,38.18 Z"
             style="fill:#000000;fill-opacity:1;fill-rule:nonzero;stroke:#000000;stroke-width:0.75;stroke-linecap:round;stroke-linejoin:round;stroke-miterlimit:10;stroke-dasharray:none;stroke-opacity:1"
             id="path1445" /></g></g><text
         xml:space="preserve"
         style="font-style:normal;font-variant:normal;font-weight:normal;font-stretch:normal;font-size:6px;line-height:1.25;font-family:sans-serif;-inkscape-font-specification:'sans-serif, Normal';font-variant-ligatures:normal;font-variant-caps:normal;font-variant-numeric:normal;font-variant-east-asian:normal;text-align:center;letter-spacing:0px;word-spacing:0px;text-anchor:middle;stroke-width:0.75"
         x="38.003609"
         y="87.855766"
         id="text1898"><tspan
           sodipodi:role="line"
           x="38.003609"
           y="87.855766"
           style="font-style:normal;font-variant:normal;font-weight:normal;font-stretch:normal;font-size:6px;font-family:sans-serif;-inkscape-font-specification:'sans-serif, Normal';font-variant-ligatures:normal;font-variant-caps:normal;font-variant-numeric:normal;font-variant-east-asian:normal;text-align:center;text-anchor:middle;stroke-width:0.75"
           id="tspan1900">(a) Mutual Ties and</tspan><tspan
           sodipodi:role="line"
           x="38.003609"
           y="95.355766"
           style="font-style:normal;font-variant:normal;font-weight:normal;font-stretch:normal;font-size:6px;font-family:sans-serif;-inkscape-font-specification:'sans-serif, Normal';font-variant-ligatures:normal;font-variant-caps:normal;font-variant-numeric:normal;font-variant-east-asian:normal;text-align:center;text-anchor:middle;stroke-width:0.75"
           id="tspan2014">Transitive Triads</tspan><tspan
           sodipodi:role="line"
           x="38.003609"
           y="102.85577"
           style="font-style:normal;font-variant:normal;font-weight:normal;font-stretch:normal;font-size:6px;font-family:sans-serif;-inkscape-font-specification:'sans-serif, Normal';font-variant-ligatures:normal;font-variant-caps:normal;font-variant-numeric:normal;font-variant-east-asian:normal;text-align:center;text-anchor:middle;stroke-width:0.75"
           id="tspan2012" /></text></g><g
       transform="translate(-6.2567037)"
       id="g2130"><g
         id="g1980"
         transform="translate(2.4335517)"><g
           id="g1505"><path
             d="m 128.73,46.664 2.649,-19.535 -1.633,1.601 2.012,-3.625 0.976,4.028 -1.152,-1.977 -2.648,19.535 z"
             style="fill:#000000;fill-opacity:1;fill-rule:nonzero;stroke:#000000;stroke-width:0.75;stroke-linecap:round;stroke-linejoin:round;stroke-miterlimit:10;stroke-dasharray:none;stroke-opacity:1"
             id="path1507" /></g><g
           id="g1509"><path
             d="m 113.723,30.836 13.777,-6.645 -2.238,-0.48 4.133,-0.32 -2.821,3.035 1.016,-2.051 -13.778,6.648 z"
             style="fill:#000000;fill-opacity:1;fill-rule:nonzero;stroke:#000000;stroke-width:0.75;stroke-linecap:round;stroke-linejoin:round;stroke-miterlimit:10;stroke-dasharray:none;stroke-opacity:1"
             id="path1511" /></g><g
           id="g1513"><path
             d="m 131.859,25.117 -2.648,19.539 1.637,-1.601 -2.016,3.621 -0.977,-4.028 1.153,1.977 2.648,-19.535 z"
             style="fill:#000000;fill-opacity:1;fill-rule:nonzero;stroke:#000000;stroke-width:0.75;stroke-linecap:round;stroke-linejoin:round;stroke-miterlimit:10;stroke-dasharray:none;stroke-opacity:1"
             id="path1515" /></g><g
           id="g1517"><path
             d="m 113.242,34.379 11.621,11.644 -0.281,-2.273 1.66,3.801 -3.797,-1.668 2.27,0.285 -11.617,-11.645 z"
             style="fill:#000000;fill-opacity:1;fill-rule:nonzero;stroke:#000000;stroke-width:0.75;stroke-linecap:round;stroke-linejoin:round;stroke-miterlimit:10;stroke-dasharray:none;stroke-opacity:1"
             id="path1519" /></g><g
           id="g1521"><path
             d="m 129.441,23.48 -13.777,6.649 2.238,0.48 -4.132,0.321 2.82,-3.035 -1.016,2.05 13.778,-6.648 z"
             style="fill:#000000;fill-opacity:1;fill-rule:nonzero;stroke:#000000;stroke-width:0.75;stroke-linecap:round;stroke-linejoin:round;stroke-miterlimit:10;stroke-dasharray:none;stroke-opacity:1"
             id="path1523" /></g><g
           id="g1525"><path
             d="m 126.168,47.621 -11.621,-11.644 0.281,2.273 -1.66,-3.801 3.797,1.668 -2.27,-0.285 11.617,11.645 z"
             style="fill:#000000;fill-opacity:1;fill-rule:nonzero;stroke:#000000;stroke-width:0.75;stroke-linecap:round;stroke-linejoin:round;stroke-miterlimit:10;stroke-dasharray:none;stroke-opacity:1"
             id="path1527" /></g><g
           id="g1529"><path
             d="m 153.598,48.953 2.082,-18.234 -1.602,1.636 1.938,-3.667 1.058,4.007 -1.191,-1.953 -2.082,18.235 z"
             style="fill:#000000;fill-opacity:1;fill-rule:nonzero;stroke:#000000;stroke-width:0.75;stroke-linecap:round;stroke-linejoin:round;stroke-miterlimit:10;stroke-dasharray:none;stroke-opacity:1"
             id="path1531" /></g><g
           id="g1533"><path
             d="m 156.117,28.699 -2.082,18.235 1.602,-1.633 -1.938,3.664 -1.058,-4.008 1.191,1.953 2.078,-18.234 z"
             style="fill:#000000;fill-opacity:1;fill-rule:nonzero;stroke:#000000;stroke-width:0.75;stroke-linecap:round;stroke-linejoin:round;stroke-miterlimit:10;stroke-dasharray:none;stroke-opacity:1"
             id="path1535" /></g><g
           id="g1537"><path
             d="m 135.23,21.664 -0.074,-0.379 -0.117,-0.371 -0.164,-0.348 -0.207,-0.328 -0.25,-0.297 -0.281,-0.265 -0.313,-0.227 -0.34,-0.187 -0.359,-0.145 -0.375,-0.094 -0.383,-0.05 h -0.387 l -0.386,0.05 -0.375,0.094 -0.36,0.145 -0.339,0.187 -0.313,0.227 -0.281,0.265 -0.246,0.297 -0.207,0.328 -0.164,0.348 -0.121,0.371 -0.075,0.379 -0.023,0.387 0.023,0.387 0.075,0.378 0.121,0.368 0.164,0.351 0.207,0.328 0.246,0.297 0.281,0.266 0.313,0.226 0.339,0.188 0.36,0.14 0.375,0.098 0.386,0.047 h 0.387 l 0.383,-0.047 0.375,-0.098 0.359,-0.14 0.34,-0.188 0.313,-0.226 0.281,-0.266 0.25,-0.297 0.207,-0.328 0.164,-0.351 0.117,-0.368 0.074,-0.378 0.024,-0.387 z"
             style="fill:#a8a8a8;fill-opacity:1;fill-rule:nonzero;stroke:#000000;stroke-width:0.75;stroke-linecap:round;stroke-linejoin:round;stroke-miterlimit:10;stroke-dasharray:none;stroke-opacity:1"
             id="path1539" /></g><g
           id="g1541"><path
             d="m 131.477,49.344 -0.075,-0.379 -0.117,-0.367 -0.168,-0.352 -0.207,-0.328 -0.246,-0.297 -0.281,-0.266 -0.313,-0.226 -0.34,-0.188 -0.359,-0.14 -0.375,-0.098 -0.383,-0.047 h -0.39 l -0.383,0.047 -0.375,0.098 -0.36,0.14 -0.339,0.188 -0.313,0.226 -0.281,0.266 -0.246,0.297 -0.207,0.328 -0.168,0.352 -0.117,0.367 -0.075,0.379 -0.023,0.386 0.023,0.387 0.075,0.379 0.117,0.371 0.168,0.348 0.207,0.328 0.246,0.297 0.281,0.265 0.313,0.227 0.339,0.188 0.36,0.144 0.375,0.094 0.383,0.051 h 0.39 l 0.383,-0.051 0.375,-0.094 0.359,-0.144 0.34,-0.188 0.313,-0.227 0.281,-0.265 0.246,-0.297 0.207,-0.328 0.168,-0.348 0.117,-0.371 0.075,-0.379 0.023,-0.387 z"
             style="fill:#a8a8a8;fill-opacity:1;fill-rule:nonzero;stroke:#000000;stroke-width:0.75;stroke-linecap:round;stroke-linejoin:round;stroke-miterlimit:10;stroke-dasharray:none;stroke-opacity:1"
             id="path1543" /></g><g
           id="g1545"><path
             d="m 114.051,31.883 -0.074,-0.383 -0.118,-0.367 -0.168,-0.348 -0.207,-0.328 -0.246,-0.297 -0.281,-0.265 -0.312,-0.227 -0.34,-0.188 -0.36,-0.144 -0.375,-0.094 -0.382,-0.051 h -0.391 l -0.383,0.051 -0.375,0.094 -0.359,0.144 -0.34,0.188 -0.313,0.227 -0.281,0.265 -0.246,0.297 -0.207,0.328 -0.168,0.348 -0.117,0.367 -0.074,0.383 -0.024,0.387 0.024,0.386 0.074,0.379 0.117,0.367 0.168,0.352 0.207,0.328 0.246,0.297 0.281,0.266 0.313,0.226 0.34,0.188 0.359,0.14 0.375,0.098 0.383,0.047 h 0.391 l 0.382,-0.047 0.375,-0.098 0.36,-0.14 0.34,-0.188 0.312,-0.226 0.281,-0.266 0.246,-0.297 0.207,-0.328 0.168,-0.352 0.118,-0.367 0.074,-0.379 0.023,-0.386 z"
             style="fill:#a8a8a8;fill-opacity:1;fill-rule:nonzero;stroke:#000000;stroke-width:0.75;stroke-linecap:round;stroke-linejoin:round;stroke-miterlimit:10;stroke-dasharray:none;stroke-opacity:1"
             id="path1547" /></g><g
           id="g1549"><path
             d="m 159.422,25.238 -0.074,-0.379 -0.118,-0.367 -0.168,-0.351 -0.207,-0.329 -0.246,-0.296 -0.281,-0.266 -0.312,-0.227 -0.34,-0.187 -0.36,-0.141 -0.375,-0.097 -0.382,-0.047 h -0.391 l -0.383,0.047 -0.375,0.097 -0.359,0.141 -0.34,0.187 -0.313,0.227 -0.281,0.266 -0.246,0.296 -0.207,0.329 -0.168,0.351 -0.117,0.367 -0.074,0.379 -0.024,0.387 0.024,0.387 0.074,0.379 0.117,0.371 0.168,0.347 0.207,0.329 0.246,0.296 0.281,0.266 0.313,0.227 0.34,0.187 0.359,0.145 0.375,0.093 0.383,0.051 h 0.391 l 0.382,-0.051 0.375,-0.093 0.36,-0.145 0.34,-0.187 0.312,-0.227 0.281,-0.266 0.246,-0.296 0.207,-0.329 0.168,-0.347 0.118,-0.371 0.074,-0.379 0.023,-0.387 z"
             style="fill:#000000;fill-opacity:1;fill-rule:nonzero;stroke:#000000;stroke-width:0.75;stroke-linecap:round;stroke-linejoin:round;stroke-miterlimit:10;stroke-dasharray:none;stroke-opacity:1"
             id="path1551" /></g><g
           id="g1553"><path
             d="m 156.41,51.641 -0.074,-0.379 -0.121,-0.367 -0.164,-0.352 -0.207,-0.328 -0.246,-0.297 -0.282,-0.266 L 155,49.426 154.664,49.238 154.305,49.098 153.93,49 153.543,48.953 h -0.387 l -0.383,0.047 -0.375,0.098 -0.359,0.14 -0.34,0.188 -0.312,0.226 -0.285,0.266 -0.247,0.297 -0.207,0.328 -0.164,0.352 -0.121,0.367 -0.07,0.379 -0.023,0.386 0.023,0.387 0.07,0.379 0.121,0.371 0.164,0.348 0.207,0.328 0.247,0.297 0.285,0.265 0.312,0.227 0.34,0.187 0.359,0.145 0.375,0.094 0.383,0.05 h 0.387 l 0.387,-0.05 0.375,-0.094 0.359,-0.145 0.336,-0.187 0.316,-0.227 0.282,-0.265 0.246,-0.297 0.207,-0.328 0.164,-0.348 0.121,-0.371 0.074,-0.379 0.024,-0.387 z"
             style="fill:#000000;fill-opacity:1;fill-rule:nonzero;stroke:#000000;stroke-width:0.75;stroke-linecap:round;stroke-linejoin:round;stroke-miterlimit:10;stroke-dasharray:none;stroke-opacity:1"
             id="path1555" /></g></g><text
         id="text1898-6"
         y="87.855766"
         x="136.00119"
         style="font-style:normal;font-variant:normal;font-weight:normal;font-stretch:normal;font-size:6px;line-height:1.25;font-family:sans-serif;-inkscape-font-specification:'sans-serif, Normal';font-variant-ligatures:normal;font-variant-caps:normal;font-variant-numeric:normal;font-variant-east-asian:normal;text-align:center;letter-spacing:0px;word-spacing:0px;text-anchor:middle;stroke-width:0.75"
         xml:space="preserve"><tspan
           id="tspan2012-4"
           style="font-style:normal;font-variant:normal;font-weight:normal;font-stretch:normal;font-size:6px;font-family:sans-serif;-inkscape-font-specification:'sans-serif, Normal';font-variant-ligatures:normal;font-variant-caps:normal;font-variant-numeric:normal;font-variant-east-asian:normal;text-align:center;text-anchor:middle;stroke-width:0.75"
           y="87.855766"
           x="136.00119"
           sodipodi:role="line">(b) Homophilic</tspan><tspan
           id="tspan2225"
           style="font-style:normal;font-variant:normal;font-weight:normal;font-stretch:normal;font-size:6px;font-family:sans-serif;-inkscape-font-specification:'sans-serif, Normal';font-variant-ligatures:normal;font-variant-caps:normal;font-variant-numeric:normal;font-variant-east-asian:normal;text-align:center;text-anchor:middle;stroke-width:0.75"
           y="95.355766"
           x="136.00119"
           sodipodi:role="line">Ties</tspan></text></g><g
       id="g2099"><g
         id="g2008"><g
           id="g1605"><path
             d="m 258.496,50.699 -26.012,-16.617 0.766,2.156 -2.441,-3.351 4.066,0.808 -2.277,0.211 26.007,16.621 z"
             style="fill:#000000;fill-opacity:1;fill-rule:nonzero;stroke:#000000;stroke-width:0.75;stroke-linecap:round;stroke-linejoin:round;stroke-miterlimit:10;stroke-dasharray:none;stroke-opacity:1"
             id="path1607" /></g><g
           id="g1609"><path
             d="m 193.312,57.68 30.75,-23.422 -2.289,-0.024 3.985,-1.14 -2.156,3.543 0.586,-2.215 -30.75,23.422 z"
             style="fill:#000000;fill-opacity:1;fill-rule:nonzero;stroke:#000000;stroke-width:0.75;stroke-linecap:round;stroke-linejoin:round;stroke-miterlimit:10;stroke-dasharray:none;stroke-opacity:1"
             id="path1611" /></g><g
           id="g1613"><path
             d="m 206.082,14.402 18.09,13.649 -0.594,-2.211 2.172,3.531 -3.988,-1.121 2.289,-0.035 -18.09,-13.649 z"
             style="fill:#000000;fill-opacity:1;fill-rule:nonzero;stroke:#000000;stroke-width:0.75;stroke-linecap:round;stroke-linejoin:round;stroke-miterlimit:10;stroke-dasharray:none;stroke-opacity:1"
             id="path1615" /></g><g
           id="g1617"><path
             d="m 223.645,52.969 3.433,-16.731 -1.738,1.489 2.254,-3.481 0.699,4.086 -1.012,-2.051 -3.433,16.727 z"
             style="fill:#000000;fill-opacity:1;fill-rule:nonzero;stroke:#000000;stroke-width:0.75;stroke-linecap:round;stroke-linejoin:round;stroke-miterlimit:10;stroke-dasharray:none;stroke-opacity:1"
             id="path1619" /></g><g
           id="g1621"><path
             d="m 258.09,52.676 -29.84,2.933 1.934,1.223 -3.989,-1.125 3.696,-1.879 -1.661,1.574 29.84,-2.929 z"
             style="fill:#000000;fill-opacity:1;fill-rule:nonzero;stroke:#000000;stroke-width:0.75;stroke-linecap:round;stroke-linejoin:round;stroke-miterlimit:10;stroke-dasharray:none;stroke-opacity:1"
             id="path1623" /></g><g
           id="g1625"><path
             d="m 193.973,59.184 24.039,-2.704 -1.953,-1.195 4.003,1.067 -3.667,1.933 1.64,-1.601 -24.039,2.703 z"
             style="fill:#000000;fill-opacity:1;fill-rule:nonzero;stroke:#000000;stroke-width:0.75;stroke-linecap:round;stroke-linejoin:round;stroke-miterlimit:10;stroke-dasharray:none;stroke-opacity:1"
             id="path1627" /></g><g
           id="g1629"><path
             d="m 204.922,15.395 16.187,35.89 0.539,-2.226 0.211,4.14 -2.961,-2.902 2.024,1.07 -16.188,-35.887 z"
             style="fill:#000000;fill-opacity:1;fill-rule:nonzero;stroke:#000000;stroke-width:0.75;stroke-linecap:round;stroke-linejoin:round;stroke-miterlimit:10;stroke-dasharray:none;stroke-opacity:1"
             id="path1631" /></g><g
           id="g1633"><path
             d="m 227.691,34.27 -3.429,16.726 1.738,-1.488 -2.254,3.48 -0.699,-4.086 1.012,2.055 3.433,-16.73 z"
             style="fill:#000000;fill-opacity:1;fill-rule:nonzero;stroke:#000000;stroke-width:0.75;stroke-linecap:round;stroke-linejoin:round;stroke-miterlimit:10;stroke-dasharray:none;stroke-opacity:1"
             id="path1635" /></g><g
           id="g1637"><path
             d="m 264.207,51.887 -0.074,-0.383 -0.117,-0.367 -0.168,-0.352 -0.207,-0.324 -0.246,-0.301 -0.282,-0.262 -0.312,-0.23 -0.34,-0.184 -0.359,-0.144 -0.375,-0.098 -0.387,-0.047 h -0.387 l -0.383,0.047 -0.375,0.098 -0.359,0.144 -0.34,0.184 -0.312,0.23 -0.282,0.262 -0.25,0.301 -0.207,0.324 -0.164,0.352 -0.117,0.367 -0.074,0.383 -0.024,0.386 0.024,0.383 0.074,0.383 0.117,0.367 0.164,0.352 0.207,0.324 0.25,0.301 0.282,0.265 0.312,0.227 0.34,0.187 0.359,0.141 0.375,0.098 0.383,0.047 h 0.387 l 0.387,-0.047 0.375,-0.098 0.359,-0.141 0.34,-0.187 0.312,-0.227 0.282,-0.265 0.246,-0.301 0.207,-0.324 0.168,-0.352 0.117,-0.367 0.074,-0.383 0.023,-0.383 z"
             style="fill:#a8a8a8;fill-opacity:1;fill-rule:nonzero;stroke:#000000;stroke-width:0.75;stroke-linecap:round;stroke-linejoin:round;stroke-miterlimit:10;stroke-dasharray:none;stroke-opacity:1"
             id="path1639" /></g><g
           id="g1641"><path
             d="m 193.98,59.246 -0.074,-0.383 -0.117,-0.367 -0.164,-0.351 -0.207,-0.325 -0.25,-0.3 -0.281,-0.262 -0.313,-0.231 -0.34,-0.183 -0.359,-0.145 -0.375,-0.097 -0.383,-0.047 h -0.387 l -0.386,0.047 -0.375,0.097 -0.36,0.145 -0.339,0.183 -0.313,0.231 -0.281,0.262 -0.246,0.3 -0.207,0.325 -0.168,0.351 -0.117,0.367 -0.075,0.383 -0.023,0.387 0.023,0.383 0.075,0.382 0.117,0.368 0.168,0.351 0.207,0.324 0.246,0.301 0.281,0.262 0.313,0.23 0.339,0.184 0.36,0.144 0.375,0.098 0.386,0.047 h 0.387 l 0.383,-0.047 0.375,-0.098 0.359,-0.144 0.34,-0.184 0.313,-0.23 0.281,-0.262 0.25,-0.301 0.207,-0.324 0.164,-0.351 0.117,-0.368 0.074,-0.382 0.024,-0.383 z"
             style="fill:#a8a8a8;fill-opacity:1;fill-rule:nonzero;stroke:#000000;stroke-width:0.75;stroke-linecap:round;stroke-linejoin:round;stroke-miterlimit:10;stroke-dasharray:none;stroke-opacity:1"
             id="path1643" /></g><g
           id="g1645"><path
             d="m 206.617,12.242 -0.07,-0.383 -0.121,-0.367 -0.164,-0.351 -0.207,-0.325 -0.246,-0.3 -0.286,-0.266 -0.312,-0.227 -0.34,-0.187 -0.359,-0.141 -0.375,-0.097 -0.383,-0.047 h -0.387 l -0.383,0.047 -0.375,0.097 -0.359,0.141 -0.34,0.187 -0.312,0.227 -0.286,0.266 -0.246,0.3 -0.207,0.325 -0.164,0.351 -0.121,0.367 -0.07,0.383 -0.027,0.383 0.027,0.387 0.07,0.383 0.121,0.367 0.164,0.351 0.207,0.325 0.246,0.3 0.286,0.262 0.312,0.23 0.34,0.184 0.359,0.145 0.375,0.097 0.383,0.047 h 0.387 l 0.383,-0.047 0.375,-0.097 0.359,-0.145 0.34,-0.184 0.312,-0.23 0.286,-0.262 0.246,-0.3 0.207,-0.325 0.164,-0.351 0.121,-0.367 0.07,-0.383 0.028,-0.387 z"
             style="fill:#a8a8a8;fill-opacity:1;fill-rule:nonzero;stroke:#000000;stroke-width:0.75;stroke-linecap:round;stroke-linejoin:round;stroke-miterlimit:10;stroke-dasharray:none;stroke-opacity:1"
             id="path1647" /></g><g
           id="g1649"><path
             d="m 231.27,30.84 -0.075,-0.379 -0.117,-0.367 -0.164,-0.352 -0.207,-0.328 -0.25,-0.297 -0.281,-0.265 -0.313,-0.227 -0.34,-0.187 -0.359,-0.141 -0.375,-0.098 -0.383,-0.047 h -0.386 l -0.387,0.047 -0.375,0.098 -0.36,0.141 -0.339,0.187 -0.313,0.227 -0.281,0.265 -0.246,0.297 -0.207,0.328 -0.168,0.352 -0.117,0.367 -0.075,0.379 -0.023,0.387 0.023,0.386 0.075,0.383 0.117,0.367 0.168,0.348 0.207,0.328 0.246,0.297 0.281,0.266 0.313,0.23 0.339,0.184 0.36,0.144 0.375,0.094 0.387,0.051 h 0.386 l 0.383,-0.051 0.375,-0.094 0.359,-0.144 0.34,-0.184 0.313,-0.23 0.281,-0.266 0.25,-0.297 0.207,-0.328 0.164,-0.348 0.117,-0.367 0.075,-0.383 0.023,-0.386 z"
             style="fill:#000000;fill-opacity:1;fill-rule:nonzero;stroke:#000000;stroke-width:0.75;stroke-linecap:round;stroke-linejoin:round;stroke-miterlimit:10;stroke-dasharray:none;stroke-opacity:1"
             id="path1651" /></g><g
           id="g1653"><path
             d="m 226.184,55.621 -0.071,-0.379 -0.121,-0.367 -0.164,-0.352 -0.207,-0.328 -0.246,-0.297 -0.285,-0.265 -0.313,-0.227 -0.339,-0.187 -0.36,-0.141 -0.375,-0.098 -0.383,-0.046 h -0.386 l -0.383,0.046 -0.375,0.098 -0.364,0.141 -0.335,0.187 -0.317,0.227 -0.281,0.265 -0.246,0.297 -0.207,0.328 -0.164,0.352 -0.121,0.367 -0.071,0.379 -0.027,0.387 0.027,0.387 0.071,0.378 0.121,0.372 0.164,0.347 0.207,0.328 0.246,0.297 0.281,0.266 0.317,0.226 0.335,0.188 0.364,0.144 0.375,0.094 0.383,0.051 h 0.386 l 0.383,-0.051 0.375,-0.094 0.36,-0.144 0.339,-0.188 0.313,-0.226 0.285,-0.266 0.246,-0.297 0.207,-0.328 0.164,-0.347 0.121,-0.372 0.071,-0.378 0.027,-0.387 z"
             style="fill:#000000;fill-opacity:1;fill-rule:nonzero;stroke:#000000;stroke-width:0.75;stroke-linecap:round;stroke-linejoin:round;stroke-miterlimit:10;stroke-dasharray:none;stroke-opacity:1"
             id="path1655" /></g></g><text
         xml:space="preserve"
         style="font-style:normal;font-variant:normal;font-weight:normal;font-stretch:normal;font-size:6px;line-height:1.25;font-family:sans-serif;-inkscape-font-specification:'sans-serif, Normal';font-variant-ligatures:normal;font-variant-caps:normal;font-variant-numeric:normal;font-variant-east-asian:normal;text-align:center;letter-spacing:0px;word-spacing:0px;text-anchor:middle;stroke-width:0.75"
         x="225.81381"
         y="87.855766"
         id="text1898-6-7"><tspan
           sodipodi:role="line"
           x="225.81381"
           y="87.855766"
           style="font-style:normal;font-variant:normal;font-weight:normal;font-stretch:normal;font-size:6px;font-family:sans-serif;-inkscape-font-specification:'sans-serif, Normal';font-variant-ligatures:normal;font-variant-caps:normal;font-variant-numeric:normal;font-variant-east-asian:normal;text-align:center;text-anchor:middle;stroke-width:0.75"
           id="tspan2012-4-2">(c) Attribute</tspan><tspan
           sodipodi:role="line"
           x="225.81381"
           y="95.355766"
           style="font-style:normal;font-variant:normal;font-weight:normal;font-stretch:normal;font-size:6px;font-family:sans-serif;-inkscape-font-specification:'sans-serif, Normal';font-variant-ligatures:normal;font-variant-caps:normal;font-variant-numeric:normal;font-variant-east-asian:normal;text-align:center;text-anchor:middle;stroke-width:0.75"
           id="tspan2063">Receiver Effect</tspan></text></g></g></svg>
